<?xml version="1.0" encoding="utf-8"?>
<!-- Generator: Adobe Illustrator 22.0.1, SVG Export Plug-In . SVG Version: 6.00 Build 0)  -->
<svg version="1.1" id="Capa_1" xmlns="http://www.w3.org/2000/svg" xmlns:xlink="http://www.w3.org/1999/xlink" x="0px" y="0px"
	 viewBox="0 0 150 50" style="enable-background:new 0 0 150 50;" xml:space="preserve">
<style type="text/css">
	.st0{fill:#004739;}
	.st1{fill:#007961;}
</style>
<g>
	<path class="st0" d="M19.1,24.4h-5.7V7.9h5.7c2.5,0,4.3,0.6,5.2,1.9c0.9,1.3,1.4,3.3,1.4,6c0,1.4-0.1,2.6-0.3,3.5
		c-0.2,1-0.5,1.8-1,2.6C23.5,23.6,21.7,24.4,19.1,24.4z M22.9,15.9c0-2-0.2-3.4-0.7-4.3s-1.5-1.3-3.1-1.3h-3V22h3
		c1.6,0,2.6-0.6,3.2-1.8c0.3-0.6,0.4-1.2,0.5-1.9C22.9,17.7,22.9,16.8,22.9,15.9z"/>
	<path class="st0" d="M37.3,16v5.5c0,0.4,0.1,0.6,0.3,0.8c0.2,0.2,0.4,0.3,0.8,0.3l-0.1,2c-1.4,0-2.4-0.3-3.2-0.9
		c-1.3,0.6-2.6,0.9-3.9,0.9c-2.4,0-3.6-1.3-3.6-3.8c0-1.2,0.3-2.1,1-2.6s1.6-0.9,3-1l3.1-0.3V16c0-0.6-0.1-1.1-0.4-1.3
		c-0.3-0.3-0.7-0.4-1.2-0.4c-1,0-2.3,0.1-3.8,0.2l-0.8,0l-0.1-1.8c1.7-0.4,3.3-0.6,4.8-0.6c1.5,0,2.5,0.3,3.2,0.9
		C37,13.7,37.3,14.7,37.3,16z M32,19c-1.1,0.1-1.7,0.7-1.7,1.8s0.5,1.7,1.5,1.7c0.8,0,1.6-0.1,2.5-0.4l0.4-0.1v-3.2L32,19z"/>
	<path class="st0" d="M39.4,12.4h2.7l2.3,9.8h0.8l2.4-9.8h2.7l-3.1,12h-4.7L39.4,12.4z"/>
	<path class="st0" d="M52.3,10.3V7.6h2.6v2.8H52.3z M52.3,24.4v-12h2.6v12H52.3z"/>
	<path class="st0" d="M67.9,7.4v17h-2.6v-0.6c-1.2,0.6-2.2,0.9-3.2,0.9c-1.6,0-2.7-0.5-3.4-1.4c-0.7-0.9-1.1-2.5-1.1-4.8
		s0.4-3.8,1.2-4.8c0.8-1,2.1-1.5,3.8-1.5c0.6,0,1.5,0.1,2.7,0.3v-5H67.9z M64.8,21.9l0.4-0.2v-7.1c-1-0.2-1.8-0.2-2.7-0.2
		c-1.6,0-2.4,1.3-2.4,4c0,1.5,0.2,2.5,0.6,3.1c0.4,0.6,1,0.9,1.8,0.9S64.1,22.1,64.8,21.9z"/>
	<path class="st0" d="M76.6,24.4V7.9h4.6l3.7,12.8l3.7-12.8h4.7v16.4h-2.7V10.9h-0.4l-3.9,12.8h-2.8l-3.9-12.8h-0.4v13.5H76.6z"/>
	<path class="st0" d="M96.7,10.3V7.6h2.6v2.8H96.7z M96.7,24.4v-12h2.6v12H96.7z"/>
	<path class="st0" d="M102.6,24.4v-17h2.6v17H102.6z"/>
	<path class="st0" d="M108.7,24.4v-17h2.6v17H108.7z"/>
	<path class="st0" d="M123.5,16v5.5c0,0.4,0.1,0.6,0.3,0.8c0.2,0.2,0.4,0.3,0.8,0.3l-0.1,2c-1.4,0-2.4-0.3-3.2-0.9
		c-1.3,0.6-2.6,0.9-3.9,0.9c-2.4,0-3.6-1.3-3.6-3.8c0-1.2,0.3-2.1,1-2.6c0.6-0.5,1.6-0.9,3-1l3.1-0.3V16c0-0.6-0.1-1.1-0.4-1.3
		c-0.3-0.3-0.7-0.4-1.2-0.4c-1,0-2.3,0.1-3.8,0.2l-0.8,0l-0.1-1.8c1.7-0.4,3.3-0.6,4.8-0.6s2.5,0.3,3.2,0.9
		C123.2,13.7,123.5,14.7,123.5,16z M118.2,19c-1.1,0.1-1.7,0.7-1.7,1.8s0.5,1.7,1.5,1.7c0.8,0,1.6-0.1,2.5-0.4l0.4-0.1v-3.2
		L118.2,19z"/>
	<path class="st0" d="M129.4,24.4h-2.6v-12h2.6v0.7c1.2-0.7,2.3-1,3.3-1c1.6,0,2.7,0.5,3.3,1.4c0.6,0.9,0.9,2.4,0.9,4.5v6.4h-2.6V18
		c0-1.3-0.1-2.2-0.4-2.8c-0.3-0.5-0.9-0.8-1.7-0.8c-0.8,0-1.6,0.2-2.4,0.5l-0.4,0.1V24.4z"/>
</g>
<rect x="13.1" y="36.5" class="st1" width="84.9" height="1"/>
<g>
	<path class="st1" d="M106.5,41.2l2-8.2h2.7l2,8.2h-1.3l-0.4-1.8h-3.2l-0.4,1.8H106.5z M109.6,34.1l-1,4.2h2.6l-1-4.2H109.6z"/>
	<path class="st1" d="M117.1,35.1c0.8,0,1.4,0.2,1.8,0.7c0.4,0.5,0.5,1.3,0.5,2.4s-0.2,2-0.6,2.4s-1.2,0.7-2.3,0.7
		c-0.4,0-1,0-1.8-0.1l-0.4,0v-8.5h1.3v2.7C116.1,35.2,116.6,35.1,117.1,35.1z M116.5,40.2c0.6,0,1.1-0.1,1.3-0.5
		c0.2-0.3,0.3-0.8,0.3-1.5c0-0.7-0.1-1.2-0.3-1.5s-0.5-0.4-0.9-0.4c-0.4,0-0.8,0.1-1.2,0.2l-0.2,0.1v3.6
		C116,40.1,116.3,40.2,116.5,40.2z"/>
	<path class="st1" d="M121,35.8c0.4-0.5,1.1-0.8,2.1-0.8s1.6,0.3,2.1,0.8c0.4,0.5,0.6,1.3,0.6,2.3s-0.2,1.8-0.6,2.4
		s-1.1,0.8-2.1,0.8c-1,0-1.7-0.3-2.1-0.8s-0.6-1.3-0.6-2.4S120.6,36.4,121,35.8z M122,39.7c0.2,0.3,0.5,0.5,1.1,0.5
		c0.5,0,0.9-0.2,1.1-0.5c0.2-0.3,0.3-0.8,0.3-1.6c0-0.7-0.1-1.2-0.3-1.5c-0.2-0.3-0.6-0.5-1.1-0.5c-0.5,0-0.9,0.2-1.1,0.5
		c-0.2,0.3-0.3,0.8-0.3,1.5C121.7,38.9,121.8,39.4,122,39.7z"/>
	<path class="st1" d="M130.7,35.2h1.3v6h-1.3v-0.4c-0.6,0.3-1.1,0.5-1.6,0.5c-0.8,0-1.4-0.2-1.7-0.7c-0.3-0.4-0.4-1.2-0.4-2.3v-3.1
		h1.3v3.1c0,0.7,0.1,1.2,0.2,1.5c0.1,0.2,0.4,0.4,0.8,0.4c0.4,0,0.8-0.1,1.2-0.2l0.2-0.1V35.2z"/>
	<path class="st1" d="M136.8,36.3h-1.7v2.6c0,0.5,0,0.8,0.1,1c0.1,0.2,0.3,0.2,0.6,0.2l1,0l0.1,1c-0.5,0.1-0.9,0.2-1.2,0.2
		c-0.7,0-1.1-0.2-1.4-0.5c-0.3-0.3-0.4-0.9-0.4-1.8v-2.8h-0.8v-1.1h0.8v-1.7h1.3v1.7h1.7V36.3z"/>
</g>
</svg>
