<?xml version="1.0" encoding="utf-8"?>
<!-- Generator: Adobe Illustrator 22.0.1, SVG Export Plug-In . SVG Version: 6.00 Build 0)  -->
<svg version="1.1" id="Capa_1" xmlns="http://www.w3.org/2000/svg" xmlns:xlink="http://www.w3.org/1999/xlink" x="0px" y="0px"
	 viewBox="0 0 150 50" style="enable-background:new 0 0 150 50;" xml:space="preserve">
<style type="text/css">
	.st0{fill:#FFFFFF;}
</style>
<g>
	<g>
		<path class="st0" d="M19.1,24.4h-5.7V7.9h5.7c2.5,0,4.3,0.6,5.2,1.9c0.9,1.3,1.4,3.3,1.4,6c0,1.4-0.1,2.6-0.3,3.5
			c-0.2,1-0.5,1.8-1,2.6C23.5,23.6,21.7,24.4,19.1,24.4z M22.9,15.9c0-2-0.2-3.4-0.7-4.3s-1.5-1.3-3.1-1.3h-3V22h3
			c1.6,0,2.6-0.6,3.2-1.8c0.3-0.6,0.4-1.2,0.5-1.9C22.9,17.7,22.9,16.8,22.9,15.9z"/>
		<path class="st0" d="M37.3,16v5.5c0,0.4,0.1,0.6,0.3,0.8c0.2,0.2,0.4,0.3,0.8,0.3l-0.1,2c-1.4,0-2.4-0.3-3.2-0.9
			c-1.3,0.6-2.6,0.9-3.9,0.9c-2.4,0-3.6-1.3-3.6-3.8c0-1.2,0.3-2.1,1-2.6s1.6-0.9,3-1l3.1-0.3V16c0-0.6-0.1-1.1-0.4-1.3
			c-0.3-0.3-0.7-0.4-1.2-0.4c-1,0-2.3,0.1-3.8,0.2l-0.8,0l-0.1-1.8c1.7-0.4,3.3-0.6,4.8-0.6c1.5,0,2.5,0.3,3.2,0.9
			C37,13.7,37.3,14.7,37.3,16z M32,19c-1.1,0.1-1.7,0.7-1.7,1.8s0.5,1.7,1.5,1.7c0.8,0,1.6-0.1,2.5-0.4l0.4-0.1v-3.2L32,19z"/>
		<path class="st0" d="M39.4,12.4h2.7l2.3,9.8h0.8l2.4-9.8h2.7l-3.1,12h-4.7L39.4,12.4z"/>
		<path class="st0" d="M52.3,10.3V7.6h2.6v2.8H52.3z M52.3,24.4v-12h2.6v12H52.3z"/>
		<path class="st0" d="M67.9,7.4v17h-2.6v-0.6c-1.2,0.6-2.2,0.9-3.2,0.9c-1.6,0-2.7-0.5-3.4-1.4c-0.7-0.9-1.1-2.5-1.1-4.8
			s0.4-3.8,1.2-4.8c0.8-1,2.1-1.5,3.8-1.5c0.6,0,1.5,0.1,2.7,0.3v-5H67.9z M64.8,21.9l0.4-0.2v-7.1c-1-0.2-1.8-0.2-2.7-0.2
			c-1.6,0-2.4,1.3-2.4,4c0,1.5,0.2,2.5,0.6,3.1c0.4,0.6,1,0.9,1.8,0.9S64.1,22.1,64.8,21.9z"/>
		<path class="st0" d="M76.6,24.4V7.9h4.6l3.7,12.8l3.7-12.8h4.7v16.4h-2.7V10.9h-0.4l-3.9,12.8h-2.8l-3.9-12.8h-0.4v13.5H76.6z"/>
		<path class="st0" d="M96.7,10.3V7.6h2.6v2.8H96.7z M96.7,24.4v-12h2.6v12H96.7z"/>
		<path class="st0" d="M102.6,24.4v-17h2.6v17H102.6z"/>
		<path class="st0" d="M108.7,24.4v-17h2.6v17H108.7z"/>
		<path class="st0" d="M123.5,16v5.5c0,0.4,0.1,0.6,0.3,0.8c0.2,0.2,0.4,0.3,0.8,0.3l-0.1,2c-1.4,0-2.4-0.3-3.2-0.9
			c-1.3,0.6-2.6,0.9-3.9,0.9c-2.4,0-3.6-1.3-3.6-3.8c0-1.2,0.3-2.1,1-2.6c0.6-0.5,1.6-0.9,3-1l3.1-0.3V16c0-0.6-0.1-1.1-0.4-1.3
			c-0.3-0.3-0.7-0.4-1.2-0.4c-1,0-2.3,0.1-3.8,0.2l-0.8,0l-0.1-1.8c1.7-0.4,3.3-0.6,4.8-0.6s2.5,0.3,3.2,0.9
			C123.2,13.7,123.5,14.7,123.5,16z M118.2,19c-1.1,0.1-1.7,0.7-1.7,1.8s0.5,1.7,1.5,1.7c0.8,0,1.6-0.1,2.5-0.4l0.4-0.1v-3.2
			L118.2,19z"/>
		<path class="st0" d="M129.4,24.4h-2.6v-12h2.6v0.7c1.2-0.7,2.3-1,3.3-1c1.6,0,2.7,0.5,3.3,1.4c0.6,0.9,0.9,2.4,0.9,4.5v6.4h-2.6
			V18c0-1.3-0.1-2.2-0.4-2.8c-0.3-0.5-0.9-0.8-1.7-0.8c-0.8,0-1.6,0.2-2.4,0.5l-0.4,0.1V24.4z"/>
	</g>
	<g>
		<path class="st0" d="M65.9,31.6h1.4l1.2,7.1h0.3l1.6-7h1.6l1.6,7h0.3l1.2-7.1h1.4l-1.6,8.2h-2.1l-1.4-6.6l-1.4,6.6h-2.2L65.9,31.6
			z"/>
		<path class="st0" d="M81.4,38.8l0.3,0l0,1C80.8,39.9,80,40,79.3,40c-0.9,0-1.5-0.2-1.9-0.7s-0.6-1.3-0.6-2.3
			c0-2.1,0.9-3.2,2.6-3.2c1.7,0,2.5,0.9,2.5,2.7l-0.1,0.9h-3.7c0,0.5,0.1,0.9,0.3,1.1c0.2,0.2,0.6,0.3,1.2,0.3S80.8,38.8,81.4,38.8z
			 M80.7,36.4c0-0.6-0.1-1-0.3-1.2c-0.2-0.2-0.5-0.4-1-0.4c-0.4,0-0.8,0.1-1,0.4s-0.3,0.7-0.3,1.2H80.7z"/>
		<path class="st0" d="M86,33.7c0.8,0,1.4,0.2,1.8,0.7c0.4,0.5,0.5,1.3,0.5,2.4s-0.2,2-0.6,2.4c-0.4,0.5-1.2,0.7-2.3,0.7
			c-0.4,0-1,0-1.8-0.1l-0.4,0v-8.5h1.3v2.7C85.1,33.8,85.6,33.7,86,33.7z M85.4,38.8c0.6,0,1.1-0.1,1.3-0.5c0.2-0.3,0.3-0.8,0.3-1.5
			c0-0.7-0.1-1.2-0.3-1.5c-0.2-0.3-0.5-0.4-0.9-0.4c-0.4,0-0.8,0.1-1.2,0.2l-0.2,0.1v3.6C84.9,38.8,85.2,38.8,85.4,38.8z"/>
		<path class="st0" d="M95.3,39.9h-2.8v-8.2h2.8c1.3,0,2.1,0.3,2.6,1c0.5,0.6,0.7,1.6,0.7,3c0,0.7,0,1.3-0.1,1.8
			c-0.1,0.5-0.3,0.9-0.5,1.3C97.5,39.5,96.6,39.9,95.3,39.9z M97.2,35.6c0-1-0.1-1.7-0.4-2.1c-0.2-0.4-0.8-0.7-1.5-0.7h-1.5v5.9h1.5
			c0.8,0,1.3-0.3,1.6-0.9c0.1-0.3,0.2-0.6,0.3-0.9S97.2,36.1,97.2,35.6z"/>
		<path class="st0" d="M104.2,38.8l0.3,0l0,1c-0.9,0.2-1.7,0.3-2.4,0.3c-0.9,0-1.5-0.2-1.9-0.7c-0.4-0.5-0.6-1.3-0.6-2.3
			c0-2.1,0.9-3.2,2.6-3.2c1.7,0,2.5,0.9,2.5,2.7l-0.1,0.9H101c0,0.5,0.1,0.9,0.3,1.1c0.2,0.2,0.6,0.3,1.2,0.3
			C103.1,38.8,103.6,38.8,104.2,38.8z M103.5,36.4c0-0.6-0.1-1-0.3-1.2c-0.2-0.2-0.5-0.4-1-0.4s-0.8,0.1-1,0.4
			c-0.2,0.2-0.3,0.7-0.3,1.2H103.5z"/>
		<path class="st0" d="M110.2,35.1c-0.9-0.1-1.6-0.2-2.1-0.2c-0.4,0-0.7,0-0.9,0.1c-0.2,0.1-0.2,0.3-0.2,0.5s0.1,0.4,0.3,0.5
			c0.2,0.1,0.6,0.2,1.3,0.3c0.7,0.1,1.1,0.3,1.4,0.5c0.3,0.2,0.4,0.7,0.4,1.3s-0.2,1.1-0.6,1.4c-0.4,0.3-1,0.4-1.8,0.4
			c-0.5,0-1.1-0.1-1.8-0.2l-0.4-0.1l0-1.1c1,0.1,1.7,0.2,2.1,0.2s0.7-0.1,0.9-0.2c0.2-0.1,0.3-0.3,0.3-0.5c0-0.2-0.1-0.4-0.3-0.5
			c-0.2-0.1-0.6-0.2-1.2-0.3s-1.1-0.3-1.4-0.5c-0.3-0.2-0.5-0.7-0.5-1.3s0.2-1.1,0.6-1.4c0.4-0.3,1-0.5,1.6-0.5
			c0.5,0,1.1,0.1,1.9,0.2l0.4,0.1L110.2,35.1z"/>
		<path class="st0" d="M111.7,32.8v-1.4h1.3v1.4H111.7z M111.7,39.9v-6h1.3v6H111.7z"/>
		<path class="st0" d="M119.8,40.7c0,1.3-0.9,2-2.8,2c-0.9,0-1.6-0.1-2-0.4s-0.7-0.7-0.7-1.4c0-0.3,0.1-0.6,0.2-0.8
			c0.1-0.2,0.4-0.4,0.7-0.7c-0.3-0.2-0.4-0.5-0.4-0.9c0-0.2,0.1-0.4,0.3-0.8l0.1-0.2c-0.6-0.3-0.9-0.9-0.9-1.8
			c0-0.7,0.2-1.2,0.6-1.6c0.4-0.3,1-0.5,1.8-0.5c0.4,0,0.7,0,1,0.1l0.2,0l1.9,0v1.1l-1-0.1c0.2,0.3,0.3,0.6,0.3,1
			c0,0.8-0.2,1.3-0.6,1.6c-0.4,0.3-1,0.5-1.9,0.5c-0.2,0-0.4,0-0.5,0c-0.1,0.3-0.2,0.5-0.2,0.6s0.1,0.2,0.2,0.3
			c0.1,0.1,0.5,0.1,1.1,0.1c1,0,1.6,0.1,2,0.4S119.8,40,119.8,40.7z M115.6,40.8c0,0.3,0.1,0.5,0.3,0.6s0.6,0.2,1.2,0.2
			c1,0,1.5-0.3,1.5-0.8c0-0.3-0.1-0.5-0.3-0.6c-0.2-0.1-0.5-0.1-1-0.1l-1.2-0.1c-0.2,0.1-0.3,0.3-0.4,0.4
			C115.6,40.5,115.6,40.6,115.6,40.8z M115.9,36.6c0.2,0.2,0.5,0.3,0.9,0.3s0.7-0.1,0.8-0.3c0.2-0.2,0.3-0.4,0.3-0.8
			s-0.1-0.6-0.3-0.8s-0.5-0.3-0.9-0.3c-0.7,0-1.1,0.4-1.1,1.1C115.7,36.2,115.8,36.5,115.9,36.6z"/>
		<path class="st0" d="M122.2,39.9h-1.3v-6h1.3v0.4c0.6-0.3,1.1-0.5,1.7-0.5c0.8,0,1.3,0.2,1.6,0.7s0.4,1.2,0.4,2.2v3.2h-1.3v-3.2
			c0-0.6-0.1-1.1-0.2-1.4c-0.1-0.3-0.4-0.4-0.9-0.4c-0.4,0-0.8,0.1-1.2,0.2l-0.2,0.1V39.9z"/>
		<path class="st0" d="M131.7,38.8l0.3,0l0,1c-0.9,0.2-1.7,0.3-2.4,0.3c-0.9,0-1.5-0.2-1.9-0.7s-0.6-1.3-0.6-2.3
			c0-2.1,0.9-3.2,2.6-3.2c1.7,0,2.5,0.9,2.5,2.7l-0.1,0.9h-3.7c0,0.5,0.1,0.9,0.3,1.1c0.2,0.2,0.6,0.3,1.2,0.3
			C130.5,38.8,131.1,38.8,131.7,38.8z M131,36.4c0-0.6-0.1-1-0.3-1.2c-0.2-0.2-0.5-0.4-1-0.4c-0.4,0-0.8,0.1-1,0.4s-0.3,0.7-0.3,1.2
			H131z"/>
		<path class="st0" d="M133.5,39.9v-6h1.3v0.7c0.7-0.4,1.4-0.7,2-0.9V35c-0.7,0.1-1.3,0.3-1.8,0.5l-0.3,0.1v4.2H133.5z"/>
	</g>
	<rect x="13.1" y="36.5" class="st0" width="50" height="1"/>
</g>
</svg>
